<svg width="24" height="33" viewBox="0 0 24 33" fill="none" xmlns="http://www.w3.org/2000/svg">
<g id="Add_Button">
<g id="Add_Symbol">
<path d="M12 0C5.372 0 0 5.372 0 12C0 12.108 0.002 12.218 0.004 12.326C0.058 14.328 0.602 16.21 1.52 17.852L9.402 31.5C9.98 32.5 10.99 33 12 33C13.01 33 14.02 32.5 14.598 31.5L22.478 17.85C23.396 16.208 23.942 14.328 23.994 12.324C23.996 12.216 23.998 12.108 23.998 11.998C24 5.372 18.628 0 12 0ZM20.922 13.204C20.402 17.222 17.208 20.408 13.19 20.924C12.788 20.976 12.392 20.998 12 20.998C11.608 20.998 11.212 20.976 10.81 20.924C6.792 20.408 3.598 17.222 3.078 13.204C2.364 7.696 6.634 3 12 3C17.366 3 21.636 7.696 20.922 13.204Z" fill="#CECECE"/>
<path d="M16 10.5H13.5V8.00001C13.5 7.172 12.828 6.5 12 6.5C11.172 6.5 10.5 7.172 10.5 8.00001V10.5H8C7.172 10.5 6.5 11.172 6.5 12C6.5 12.828 7.172 13.5 8 13.5H10.5V16.0001C10.5 16.8281 11.172 17.5001 12 17.5001C12.828 17.5001 13.5 16.8281 13.5 16.0001V13.5H16C16.828 13.5 17.5 12.828 17.5 12C17.5 11.172 16.828 10.5 16 10.5Z" fill="#CECECE"/>
</g>
</g>
</svg>
