<svg width="24" height="24" viewBox="0 0 24 24" fill="none" xmlns="http://www.w3.org/2000/svg">
<g id="Close_button">
<path id="Vector" d="M14.2175 12.3173C14.0418 12.1416 14.0418 11.8584 14.2175 11.6827L19.6043 6.29589C20.1296 5.77066 20.1296 4.91916 19.6043 4.39393C19.0791 3.86869 18.2276 3.86869 17.7024 4.39393L12.3155 9.78253C12.1398 9.95821 11.8566 9.95821 11.6809 9.78253L6.29411 4.39572C5.76887 3.87048 4.91917 3.87048 4.39393 4.39572C3.86869 4.92096 3.86869 5.77066 4.39393 6.29589L9.78076 11.6827C9.95643 11.8584 9.95643 12.1416 9.78076 12.3173L4.39393 17.7041C3.86869 18.2293 3.86869 19.0808 4.39393 19.6061C4.91917 20.1313 5.77066 20.1313 6.2959 19.6061L11.6827 14.2193C11.8584 14.0436 12.1416 14.0436 12.3173 14.2193L17.7041 19.6061C18.2294 20.1313 19.0809 20.1313 19.6061 19.6061C20.1314 19.0808 20.1314 18.2293 19.6061 17.7041L14.2175 12.3173Z" fill="#CECECE"/>
</g>
</svg>
