<svg width="24" height="24" viewBox="0 0 24 24" fill="none" xmlns="http://www.w3.org/2000/svg">
<g id="Property 1=Default">
<path id="Home_Symbol" d="M21.6967 10.2911C21.485 9.76982 21.1767 9.30346 20.78 8.90706L15.19 3.32079C14.7683 2.8994 14.2767 2.57129 13.7267 2.3431C13.1767 2.11492 12.595 2 12 2C11.405 2 10.8233 2.11492 10.2733 2.3431C9.72333 2.57129 9.23 2.8994 8.81 3.32079L3.22 8.9054C2.82167 9.30346 2.51333 9.76815 2.30333 10.2911C2.09833 10.7975 2 11.3388 2 11.8834V11.9933C2 12.5546 2.11 13.0993 2.32833 13.6156C2.53833 14.1119 2.83833 14.5566 3.22 14.938C3.275 14.993 3.33167 15.0463 3.38833 15.0979C3.565 15.2562 3.665 15.481 3.665 15.7175V18.6689C3.665 19.1169 3.75333 19.5533 3.92833 19.9664C4.09667 20.3628 4.33667 20.7192 4.64167 21.024C4.94667 21.3288 5.30333 21.5686 5.7 21.7368C6.11333 21.9117 6.55 22 6.99833 22H16.9983C17.4467 22 17.8833 21.9117 18.2967 21.7368C18.6933 21.5686 19.05 21.3288 19.355 21.024C19.66 20.7192 19.9 20.3628 20.0683 19.9664C20.2433 19.5533 20.3317 19.1169 20.3317 18.6689V15.7175C20.3317 15.481 20.4317 15.2562 20.6083 15.0979C20.6667 15.0463 20.7217 14.993 20.7767 14.938C21.1583 14.5566 21.4583 14.1119 21.6683 13.6156C21.8867 13.1009 21.9967 12.5546 21.9967 11.9933V11.8834C22 11.3388 21.9017 10.7958 21.6967 10.2911ZM19.5 11.9933C19.5 12.7179 19.0367 13.3341 18.39 13.564C18.0567 13.6822 17.8333 13.9953 17.8333 14.3501V18.6706C17.8333 19.1302 17.46 19.5033 17 19.5033H14.9167C14.4567 19.5033 14.0833 19.1302 14.0833 18.6706V15.7891C14.0833 14.6382 13.1583 13.6889 12.0067 13.6839C10.8533 13.6805 9.91667 14.6133 9.91667 15.7658V18.6706C9.91667 19.1302 9.54333 19.5033 9.08333 19.5033H7C6.54 19.5033 6.16667 19.1302 6.16667 18.6706V14.3484C6.16667 13.9953 5.94333 13.6805 5.61 13.5623C4.96333 13.3341 4.5 12.7179 4.5 11.9933V11.8501C4.5 11.4087 4.675 10.984 4.98833 10.6726L10.5783 5.08628C10.955 4.70986 11.4667 4.49833 12 4.49833C12.5333 4.49833 13.045 4.70986 13.4233 5.08794L19.0133 10.6742C19.3267 10.9873 19.5017 11.4104 19.5017 11.8518V11.9933H19.5Z" fill="#CECECE"/>
</g>
</svg>
