<svg width="24" height="24" viewBox="0 0 24 24" fill="none" xmlns="http://www.w3.org/2000/svg">
<g id="Property 1=Active">
<path id="Favorite_Symbol" d="M16.5547 5.71138C17.541 5.71138 18.4686 6.09098 19.1671 6.77786C19.8656 7.46655 20.2487 8.37939 20.2487 9.35368C20.2487 10.3262 19.8638 11.2408 19.1671 11.9295L12.6481 18.3573C12.4152 18.5868 12.1421 18.6212 11.9991 18.6212C11.8561 18.6212 11.5848 18.5868 11.3501 18.3573L4.83105 11.9277C4.13258 11.239 3.74943 10.3262 3.74943 9.35187C3.74943 8.37939 4.13441 7.46474 4.83105 6.77605C5.52952 6.08736 6.45531 5.70958 7.44161 5.70958C8.4279 5.70958 9.35553 6.08917 10.054 6.77605L11.6746 8.37396C11.8543 8.55111 12.1439 8.55111 12.3236 8.37396L13.9442 6.77605C14.6408 6.09098 15.5684 5.71138 16.5547 5.71138ZM16.5547 3C14.9066 3 13.2567 3.62 11.9991 4.86001C10.7415 3.62 9.09154 3 7.44344 3C5.79351 3 4.14541 3.62 2.8878 4.86001C0.370735 7.34183 0.370735 11.3637 2.8878 13.8455L9.40686 20.2733C10.1237 20.9801 11.0605 21.3326 11.9991 21.3326C12.9377 21.3326 13.8763 20.9801 14.5913 20.2733L21.1122 13.8455C23.6293 11.3637 23.6293 7.34183 21.1122 4.86001C19.8528 3.62 18.2047 3 16.5547 3Z" fill="#33D17C"/>
</g>
</svg>
