<?xml version="1.0" encoding="utf-8"?>
<!-- Generator: Adobe Illustrator 25.0.1, SVG Export Plug-In . SVG Version: 6.00 Build 0)  -->
<svg version="1.1" id="Layer_1" xmlns="http://www.w3.org/2000/svg" xmlns:xlink="http://www.w3.org/1999/xlink" x="0px" y="0px"
	 viewBox="0 0 24 24" style="enable-background:new 0 0 24 24;" xml:space="preserve">
<style type="text/css">
	.st0{fill:#CECECE;}
</style>
<g id="Location_Indicator">
	<path id="Anchor_Symbol" class="st0" d="M12,4C8.7,4,6,6.6,6,9.8C6,9.9,6,9.9,6,10c0,1,0.3,1.9,0.8,2.7l0.1,0.1l3.9,6.5
		C11,19.8,11.5,20,12,20c0.5,0,1-0.2,1.3-0.7l3.9-6.5l0.1-0.1c0.5-0.8,0.7-1.7,0.8-2.7c0-0.1,0-0.1,0-0.2C18,6.6,15.3,4,12,4z
		 M16.5,9.9c0,0.4-0.1,0.7-0.2,1.1c-0.1,0.3-0.2,0.6-0.4,0.9l-0.1,0.1L12,18.5l-3.9-6.5l-0.1-0.1c-0.2-0.3-0.3-0.6-0.4-0.9
		c-0.1-0.3-0.2-0.7-0.2-1.1c0,0,0-0.1,0-0.1c0-0.6,0.1-1.2,0.4-1.7c0.2-0.5,0.6-1,1-1.4C9.2,6.3,9.7,6,10.2,5.8
		c0.6-0.2,1.1-0.3,1.8-0.3c0.6,0,1.2,0.1,1.8,0.3c0.5,0.2,1,0.5,1.4,0.9c0.4,0.4,0.7,0.9,1,1.4c0.2,0.5,0.4,1.1,0.4,1.7
		C16.5,9.9,16.5,9.9,16.5,9.9z M14.5,9.8c0,1.3-1.1,2.4-2.5,2.4s-2.5-1.1-2.5-2.4s1.1-2.4,2.5-2.4S14.5,8.5,14.5,9.8z"/>
</g>
</svg>
