<svg width="41" height="24" viewBox="0 0 41 24" fill="none" xmlns="http://www.w3.org/2000/svg">
<g id="LogoType">
<path id="Vector" d="M38.5 1.29461V16.3319C38.5 19.1203 36.3 21.3112 33.5 21.3112C30.7 21.3112 28.5 19.0207 28.5 16.3319V1.29461H26V13.7427C24.9 10.9544 22.2 8.96266 19 8.96266C17.4 8.96266 15.9 9.46058 14.6 10.3568C14.9 9.46058 15.1 8.56431 15.1 7.56846C15.1 3.38589 11.7 0 7.6 0C3.5 0 0 3.38589 0 7.56846V22.7054H2.5V13.1452C3.8 14.3402 5.6 15.0373 7.5 15.0373C9.1 15.0373 10.6 14.5394 11.9 13.6432C11.6 14.5394 11.4 15.4357 11.4 16.4315C11.4 20.6141 14.8 24 18.9 24C22.4 24 25.4 21.61 26.2 18.3237C27.1 21.5104 30 23.9004 33.5 23.9004C37.7 23.9004 41 20.5145 41 16.3319V1.29461H38.5ZM7.5 12.5477C4.7 12.5477 2.5 10.2573 2.5 7.56846C2.5 4.87967 4.7 2.58921 7.5 2.58921C10.3 2.58921 12.5 4.87967 12.5 7.56846C12.5 10.2573 10.3 12.5477 7.5 12.5477ZM18.9 21.4108C16.1 21.4108 13.9 19.1203 13.9 16.4315C13.9 13.6432 16.1 11.4523 18.9 11.4523C21.7 11.4523 23.9 13.7427 23.9 16.4315C23.9 19.1203 21.7 21.4108 18.9 21.4108Z" fill="#CECECE"/>
</g>
</svg>
