<svg width="24" height="32" viewBox="0 0 24 32" fill="none" xmlns="http://www.w3.org/2000/svg">
<g id="Logo_Icon">
<path id="Vector" d="M23.2818 11.5909C23.2818 11.6909 23.2818 11.7908 23.2818 11.8907C23.1819 13.7892 22.6823 15.6877 21.783 17.2865L21.5831 17.5863L14.089 30.5761C12.9899 32.4746 10.192 32.4746 9.0929 30.5761L6.19516 25.58C5.89539 25.1803 5.79547 24.6807 5.79547 24.0812V18.7853C5.79547 18.5855 6.09524 18.3856 6.29508 18.5855C8.09368 19.9844 10.292 20.6838 12.79 20.3841C16.687 19.8845 19.7845 16.7869 20.2842 12.8899C20.9836 7.49414 16.7869 2.99766 11.5909 2.99766C6.79469 2.99766 2.89774 6.99454 2.89774 11.7908V18.7853C2.89774 19.0851 2.49805 19.185 2.39813 18.8852L1.69867 17.5863C1.59875 17.4863 1.59875 17.3864 1.49883 17.2865C0.599532 15.6877 0.0999219 13.8891 0 11.9906C0 11.8907 0 11.7908 0 11.6909C0 5.19594 5.19594 0 11.5909 0C18.0859 0 23.2818 5.19594 23.2818 11.5909ZM5.79547 11.6909C5.69555 8.39344 8.39344 5.69555 11.6909 5.79547C14.7884 5.89539 17.2865 8.39344 17.3864 11.491C17.4863 14.7884 14.7884 17.4863 11.491 17.3864C8.39344 17.3864 5.89539 14.8884 5.79547 11.6909ZM8.69321 11.491C8.59329 13.1897 9.99219 14.5886 11.7908 14.5886C13.2896 14.4887 14.4887 13.2896 14.5886 11.7908C14.6885 10.0921 13.2896 8.69321 11.491 8.69321C9.99219 8.79313 8.79313 9.99219 8.69321 11.491Z" fill="#33D17C"/>
</g>
</svg>
