<svg width="100" height="175" viewBox="0 0 100 175" fill="none" xmlns="http://www.w3.org/2000/svg">
<g id="Logo_Vertical">
<path id="LogoType" d="M93.9116 119.75V156.417C93.9116 163.167 88.407 168.667 81.6514 168.667C74.8957 168.667 69.3912 163.167 69.3912 156.417V119.75H63.3028V150.083C60.6339 143.167 53.9616 138.333 46.1218 138.333C42.1184 138.333 38.4487 139.583 35.4462 141.75C36.2802 139.667 36.6972 137.417 36.6972 135.083C36.6972 124.917 28.4404 116.75 18.3486 116.75C8.25688 116.75 0 125 0 135.083V172H6.08841V148.75C9.34112 151.667 13.5947 153.417 18.3486 153.417C22.352 153.417 26.0217 152.167 29.0242 150C28.1902 152.083 27.7731 154.333 27.7731 156.667C27.7731 166.833 36.03 175 46.1218 175C54.7123 175 61.8849 169.167 63.8866 161.25C65.9716 169.083 73.1443 174.75 81.6514 174.75C91.8265 174.75 100 166.5 100 156.417V119.75H93.9116ZM18.2652 147.25C11.5096 147.25 6.005 141.75 6.005 135C6.005 128.25 11.5096 122.75 18.2652 122.75C25.0209 122.75 30.5254 128.25 30.5254 135C30.5254 141.75 25.1043 147.25 18.2652 147.25ZM46.1218 168.917C39.3661 168.917 33.8616 163.417 33.8616 156.667C33.8616 149.917 39.3661 144.417 46.1218 144.417C52.8774 144.417 58.2986 149.917 58.2986 156.667C58.2986 163.417 52.8774 168.917 46.1218 168.917Z" fill="#CECECE"/>
<path id="LogoIcon" d="M83.3198 33.3333C83.3198 33.6667 83.3198 33.9167 83.3198 34.25C83.153 39.8333 81.6517 45 79.0663 49.5833L78.6492 50.3333L57.2147 87.5C54.0454 93.0833 45.9553 93.0833 42.786 87.5L34.4457 73.0833C33.6951 71.8333 33.3615 70.4167 33.3615 68.9167V53.75C33.3615 53.0833 34.1955 52.6667 34.696 53.0833C39.7001 57 46.2889 59 53.3782 58.0833C64.4708 56.6667 73.3115 47.8333 74.7293 36.6667C76.731 21.3333 64.721 8.25 49.7085 8.33333C36.0304 8.41667 24.9378 19.8333 24.9378 33.5833V53.5833C24.9378 54.4167 23.7702 54.75 23.3532 54L21.2681 50.3333C21.1013 50.0833 20.9345 49.8333 20.8511 49.5833C18.2656 45 16.7643 39.8333 16.5975 34.25C16.5975 33.9167 16.5975 33.6667 16.5975 33.3333C16.5975 14.9167 31.5266 0 49.9587 0C68.3907 0 83.3198 14.9167 83.3198 33.3333ZM33.2781 33.6667C33.1113 24.1667 40.7844 16.5 50.2923 16.6667C59.2164 16.8333 66.4724 24.0833 66.6392 33C66.806 42.5 59.133 50.1667 49.6251 50C40.701 49.8333 33.4449 42.5833 33.2781 33.6667ZM41.6184 32.9167C41.3682 37.8333 45.4549 41.9167 50.3757 41.6667C54.6292 41.4167 58.0487 38 58.299 33.75C58.5492 28.8333 54.4624 24.75 49.5417 25C45.2881 25.25 41.8686 28.6667 41.6184 32.9167Z" fill="#33D17C"/>
</g>
</svg>
