<svg width="264" height="110" viewBox="0 0 264 110" fill="none" xmlns="http://www.w3.org/2000/svg">
<g id="Logo_Horizontal">
<path id="LogoType" d="M254.503 14.6967V71.2838C254.503 81.6814 246.106 90.1795 235.61 90.1795C225.214 90.1795 216.717 81.6814 216.717 71.2838V14.6967H207.321V61.486C203.222 50.8884 192.926 43.2902 180.931 43.2902C174.833 43.2902 169.135 45.2897 164.537 48.589C165.836 45.3897 166.436 41.8905 166.436 38.2913C166.436 22.6949 153.741 9.99774 138.147 9.99774C122.553 9.99774 109.958 22.6949 109.958 38.2913V95.2784H119.354V59.3865C124.352 63.8855 130.95 66.5849 138.247 66.5849C144.344 66.5849 150.042 64.5853 154.641 61.2861C153.341 64.4854 152.741 67.9846 152.741 71.5837C152.741 87.1802 165.437 99.8773 181.031 99.8773C194.226 99.8773 205.221 90.8794 208.42 78.6821C211.719 90.6794 222.615 99.5774 235.71 99.5774C251.304 99.5774 263.999 86.8803 263.999 71.2838V14.6967H254.503ZM138.247 57.187C127.851 57.187 119.354 48.6889 119.354 38.2913C119.354 27.8937 127.751 19.3956 138.247 19.3956C148.643 19.3956 157.14 27.8937 157.14 38.2913C157.14 48.6889 148.643 57.187 138.247 57.187ZM180.931 90.5794C170.535 90.5794 162.038 82.0814 162.038 71.6837C162.038 61.2861 170.435 52.788 180.931 52.788C191.327 52.788 199.823 61.2861 199.823 71.6837C199.823 82.0814 191.427 90.5794 180.931 90.5794Z" fill="#CECECE"/>
<path id="LogoIcon" d="M79.9697 39.9909C79.9697 40.3908 79.9697 40.6908 79.9697 41.0907C79.7698 47.7891 77.9705 53.9877 74.8716 59.4865L74.3718 60.3863L48.6816 104.976C44.883 111.675 35.1867 111.675 31.3881 104.976L21.3919 87.6801C20.4922 86.1804 20.0924 84.4808 20.0924 82.6812V64.4853C20.0924 63.6855 21.092 63.1856 21.6918 63.6855C27.6895 68.3845 35.5865 70.7839 44.0833 69.6842C57.3783 67.9845 67.9742 57.387 69.6736 43.99C72.0727 25.5942 57.6781 9.89775 39.685 9.99773C23.2912 10.0977 9.99621 23.7946 9.99621 40.2908V64.2854C9.99621 65.2852 8.59674 65.6851 8.09693 64.7853L5.59788 60.3863C5.39795 60.0863 5.19803 59.7864 5.09807 59.4865C1.99924 53.9877 0.199924 47.7891 0 41.0907C0 40.6908 0 40.3908 0 39.9909C0 17.8959 17.8932 0 39.9849 0C62.0765 0 79.9697 17.8959 79.9697 39.9909ZM19.9924 40.3908C19.7925 28.9934 28.989 19.7955 40.3847 19.9955C51.0806 20.1954 59.7774 28.8934 59.9773 39.591C60.1772 50.9884 50.9807 60.1863 39.585 59.9864C28.8891 59.7864 20.1923 51.0884 19.9924 40.3908ZM29.9886 39.491C29.6888 45.3897 34.5869 50.2886 40.4847 49.9886C45.5827 49.6887 49.6812 45.5896 49.9811 40.4908C50.2809 34.5921 45.3828 29.6933 39.485 29.9932C34.387 30.2931 30.2885 34.3922 29.9886 39.491Z" fill="#33D17C"/>
</g>
</svg>
