<svg width="24" height="24" viewBox="0 0 24 24" fill="none" xmlns="http://www.w3.org/2000/svg">
<g id="Home_Button/mark_for_User_Button">
<path id="user_symbol" d="M21.2133 16.8567C20.71 15.665 19.9883 14.5967 19.07 13.6783C18.5917 13.2 18.0733 12.7767 17.5167 12.4083C17.76 12.0483 17.9683 11.6667 18.14 11.2617C18.4883 10.4383 18.665 9.565 18.665 8.66667C18.665 7.76833 18.4883 6.895 18.14 6.07167C17.8033 5.27833 17.3233 4.565 16.7117 3.95333C16.1 3.34167 15.3883 2.86167 14.5933 2.525C13.7717 2.17667 12.8983 2 12 2C11.1017 2 10.2283 2.17667 9.405 2.525C8.61167 2.86167 7.89833 3.34167 7.28667 3.95333C6.675 4.565 6.195 5.27667 5.85833 6.07167C5.51 6.895 5.33333 7.76833 5.33333 8.66667C5.33333 9.565 5.51 10.4383 5.85833 11.2617C6.03 11.665 6.23833 12.0483 6.48167 12.4083C5.92667 12.7767 5.40667 13.2017 4.92833 13.6783C4.01167 14.5967 3.29 15.6667 2.78667 16.8567C2.265 18.09 2 19.4 2 20.75C2 21.44 2.56 22 3.25 22H20.75C21.44 22 22 21.44 22 20.75C22 19.4 21.735 18.09 21.2133 16.8567ZM12 4.5C14.3017 4.5 16.1667 6.365 16.1667 8.66667C16.1667 10.9683 14.3017 12.8333 12 12.8333C9.69833 12.8333 7.83333 10.9683 7.83333 8.66667C7.83333 6.365 9.69833 4.5 12 4.5ZM8.31167 14.2217C8.655 14.45 9.02 14.6467 9.40333 14.8083C10.2283 15.1567 11.1017 15.3333 12 15.3333C12.8983 15.3333 13.7717 15.1567 14.595 14.8083C14.9783 14.6467 15.3433 14.45 15.6867 14.2217C17.4667 15.2317 18.795 16.9467 19.2883 18.9867C19.3517 19.2483 19.1533 19.5017 18.8833 19.5017H5.115C4.845 19.5017 4.64667 19.25 4.71 18.9867C5.20333 16.9467 6.53167 15.23 8.31167 14.2217Z" fill="#CECECE"/>
</g>
</svg>
