<svg width="24" height="24" viewBox="0 0 24 24" fill="none" xmlns="http://www.w3.org/2000/svg">
<g id="Property 1=Default">
<path id="Notification_Symbol" d="M21.1367 14.47L19.53 12.8633C18.9767 12.31 18.6667 11.5617 18.6667 10.78V8.66667C18.6667 4.985 15.6817 2 12 2C8.31833 2 5.33333 4.985 5.33333 8.66667V10.78C5.33333 11.5617 5.02333 12.31 4.47 12.8633L2.86333 14.47C2.31 15.0233 2 15.7717 2 16.5533C2 18.1817 3.31833 19.5 4.94667 19.5H5.33333H9.5C9.5 20.88 10.62 22 12 22C13.38 22 14.5 20.88 14.5 19.5H18.6667H19.0533C20.68 19.5 22 18.1817 22 16.5533C22 15.7717 21.69 15.0233 21.1367 14.47ZM19.0533 17H18.6667H14.5H12H9.5H5.33333H4.94667C4.7 17 4.5 16.8 4.5 16.5533C4.5 16.4333 4.54667 16.3217 4.63 16.2383L6.23667 14.6317C7.26667 13.6017 7.83333 12.235 7.83333 10.78V8.66667C7.83333 7.55333 8.26667 6.50667 9.05333 5.72C9.84 4.93333 10.8867 4.5 12 4.5C13.1133 4.5 14.16 4.93333 14.9467 5.72C15.7333 6.50667 16.1667 7.55333 16.1667 8.66667V10.78C16.1667 12.235 16.7333 13.6017 17.7617 14.6317L19.3683 16.2383C19.4533 16.3233 19.4983 16.435 19.4983 16.5533C19.5 16.8 19.3 17 19.0533 17Z" fill="#CECECE"/>
</g>
</svg>
