<svg width="24" height="24" viewBox="0 0 24 24" fill="none" xmlns="http://www.w3.org/2000/svg">
<g id="Property 1=+ALert_Active">
<rect id="Rectangle 17" x="16" width="8" height="8" rx="4" fill="#D13C33"/>
<path id="Subtract" d="M14.2215 2.37915C14.0772 2.89472 14 3.43835 14 4C14 4.3623 14.0321 4.7171 14.0936 5.06171C13.4648 4.69531 12.7474 4.5 12 4.5C10.8867 4.5 9.84 4.93333 9.05333 5.72C8.26667 6.50667 7.83333 7.55333 7.83333 8.66667V10.78C7.83333 12.235 7.26667 13.6017 6.23667 14.6317L4.63 16.2383C4.54667 16.3217 4.5 16.4333 4.5 16.5533C4.5 16.8 4.7 17 4.94667 17H19.0533C19.3 17 19.5 16.8 19.4983 16.5533C19.4983 16.435 19.4533 16.3233 19.3683 16.2383L17.7617 14.6317C16.7333 13.6017 16.1667 12.235 16.1667 10.78V8.66667C16.1667 8.64968 16.1666 8.6327 16.1664 8.61574C16.8792 9.20841 17.7314 9.6391 18.6667 9.85132V10.78C18.6667 11.5617 18.9767 12.31 19.53 12.8633L21.1367 14.47C21.69 15.0233 22 15.7717 22 16.5533C22 18.1817 20.68 19.5 19.0533 19.5H14.5C14.5 20.88 13.38 22 12 22C10.62 22 9.5 20.88 9.5 19.5H4.94667C3.31833 19.5 2 18.1817 2 16.5533C2 15.7717 2.31 15.0233 2.86333 14.47L4.47 12.8633C5.02333 12.31 5.33333 11.5617 5.33333 10.78V8.66667C5.33333 4.985 8.31833 2 12 2C12.7789 2 13.5266 2.13361 14.2215 2.37915Z" fill="#33D17C"/>
</g>
</svg>
