<svg width="24" height="24" viewBox="0 0 24 24" fill="none" xmlns="http://www.w3.org/2000/svg">
<g id="Property 1=Default">
<path id="Search_Symbol" d="M21.6333 19.8667L16.3283 14.56C17.275 13.2567 17.8333 11.6517 17.8333 9.91667C17.8333 5.545 14.2883 2 9.91667 2C5.545 2 2 5.545 2 9.91667C2 14.2883 5.545 17.8333 9.91667 17.8333C11.6517 17.8333 13.2567 17.275 14.5617 16.3283L19.8667 21.6333C20.11 21.8767 20.43 22 20.75 22C21.07 22 21.39 21.8783 21.6333 21.6333C22.1217 21.145 22.1217 20.355 21.6333 19.8667ZM14.9083 12.025C14.635 12.67 14.245 13.25 13.7467 13.7483C13.2483 14.2467 12.6683 14.6383 12.0233 14.91C11.3567 15.1917 10.6483 15.335 9.915 15.335C9.18333 15.335 8.47333 15.1917 7.80667 14.91C7.16167 14.6367 6.58167 14.2467 6.08333 13.7483C5.585 13.25 5.19333 12.67 4.92167 12.025C4.64 11.3583 4.49667 10.65 4.49667 9.91667C4.49667 9.185 4.64 8.475 4.92167 7.80833C5.195 7.16333 5.585 6.58333 6.08333 6.085C6.58167 5.58667 7.16167 5.19667 7.80667 4.92333C8.47333 4.64167 9.18167 4.49833 9.915 4.49833C10.6467 4.49833 11.3567 4.64167 12.0233 4.92333C12.6683 5.19667 13.2483 5.58667 13.7467 6.085C14.245 6.58333 14.6367 7.16333 14.9083 7.80833C15.19 8.475 15.3333 9.18333 15.3333 9.91667C15.3333 10.6483 15.19 11.3583 14.9083 12.025Z" fill="#CECECE"/>
</g>
</svg>
